<?xml version="1.0" standalone="no"?>
<!DOCTYPE svg PUBLIC "-//W3C//DTD SVG 20010904//EN"
 "http://www.w3.org/TR/2001/REC-SVG-20010904/DTD/svg10.dtd">
<svg version="1.0" xmlns="http://www.w3.org/2000/svg"
 width="700.000000pt" height="700.000000pt" viewBox="0 0 700.000000 700.000000"
 preserveAspectRatio="xMidYMid meet">
<metadata>
Created by potrace 1.14, written by Peter Selinger 2001-2017
</metadata>
<g transform="translate(0.000000,700.000000) scale(0.100000,-0.100000)"
fill="#000000" stroke="none">
<path d="M3298 6695 c-1 -2 -41 -6 -88 -9 -47 -3 -94 -7 -105 -9 -22 -5 -108
-18 -141 -22 -11 -2 -45 -8 -75 -14 -30 -6 -64 -13 -77 -16 -12 -2 -57 -13
-98 -25 -42 -11 -79 -18 -84 -15 -4 3 -10 1 -12 -4 -1 -6 -14 -12 -28 -15 -14
-3 -49 -14 -79 -25 -30 -11 -57 -18 -62 -16 -4 3 -9 2 -11 -3 -1 -4 -28 -17
-58 -29 -106 -40 -146 -58 -299 -135 -85 -42 -159 -74 -164 -71 -6 3 -7 1 -3
-6 4 -6 0 -14 -11 -18 -10 -4 -20 -9 -23 -12 -3 -4 -39 -27 -81 -53 -42 -25
-85 -53 -95 -62 -11 -8 -48 -37 -84 -63 -72 -53 -75 -55 -140 -113 -25 -22
-50 -38 -57 -35 -7 2 -10 -2 -6 -11 3 -7 1 -14 -4 -14 -5 0 -38 -28 -73 -62
-36 -35 -68 -62 -72 -60 -5 1 -7 -1 -6 -5 4 -13 -44 -63 -54 -57 -5 3 -7 2 -6
-3 5 -14 -75 -102 -86 -96 -6 4 -8 3 -4 -2 7 -7 -33 -65 -81 -117 -26 -28 -37
-42 -66 -86 -15 -23 -32 -39 -38 -35 -5 3 -7 1 -3 -5 8 -13 -99 -174 -109
-164 -5 4 -5 2 -2 -4 4 -6 -8 -35 -26 -65 -18 -30 -39 -68 -46 -86 -7 -18 -19
-38 -27 -44 -8 -6 -14 -20 -14 -30 0 -11 -4 -19 -10 -19 -5 0 -10 -4 -10 -9 0
-5 -13 -38 -28 -73 -16 -34 -30 -67 -31 -73 -2 -5 -9 -21 -16 -35 -17 -33 -30
-65 -51 -125 -10 -27 -20 -52 -23 -55 -4 -3 -7 -14 -9 -25 -1 -11 -4 -24 -6
-30 -29 -98 -45 -156 -52 -180 -4 -16 -8 -32 -9 -35 -4 -12 -18 -85 -18 -90 1
-3 -4 -14 -9 -25 -6 -10 -12 -33 -13 -50 -1 -16 -10 -77 -18 -135 -19 -121
-25 -186 -28 -285 -1 -38 -6 -78 -11 -87 -5 -10 -5 -18 -1 -18 4 0 8 -44 9
-98 0 -123 12 -313 19 -320 2 -3 -1 -12 -8 -20 -9 -13 -9 -14 0 -8 10 5 13 -4
14 -36 0 -24 4 -52 8 -63 5 -12 4 -26 -3 -34 -9 -12 -8 -13 3 -6 11 6 13 1 9
-23 -2 -17 -2 -33 1 -34 5 -2 31 -108 56 -227 11 -52 51 -173 100 -303 20 -53
33 -103 29 -109 -4 -7 -3 -9 3 -6 5 3 22 -22 37 -56 16 -34 35 -78 44 -97 9
-19 26 -52 39 -73 13 -20 21 -37 18 -37 -3 0 1 -10 10 -23 8 -13 13 -27 10
-30 -3 -4 -2 -5 1 -2 4 2 24 -25 46 -62 52 -88 130 -207 140 -211 4 -2 8 -10
8 -17 0 -7 3 -15 8 -17 17 -7 81 -102 75 -111 -3 -5 -2 -7 4 -4 6 4 25 -13 43
-36 71 -90 297 -321 363 -371 20 -16 34 -32 31 -37 -3 -5 -2 -8 3 -7 14 4 54
-23 48 -33 -4 -5 -1 -8 7 -7 7 2 12 -2 11 -8 -1 -7 5 -11 15 -10 10 0 16 -5
14 -14 -2 -8 0 -12 3 -8 11 10 96 -53 88 -65 -3 -6 -1 -7 5 -3 11 6 76 -35
125 -78 9 -9 20 -17 25 -17 19 -4 51 -23 47 -29 -2 -4 1 -7 8 -7 19 -1 138
-69 131 -75 -3 -3 1 -5 8 -5 7 1 69 -26 138 -60 69 -33 171 -78 227 -99 56
-20 100 -40 98 -44 -2 -4 7 -5 22 -2 20 4 24 2 18 -8 -6 -10 -4 -12 9 -7 9 4
39 -2 66 -12 27 -10 51 -16 54 -13 4 3 6 0 6 -7 0 -7 3 -10 8 -7 4 2 50 -6
102 -19 52 -13 116 -26 143 -30 35 -5 47 -11 47 -23 0 -14 2 -14 9 -3 6 10 19
12 42 7 19 -3 56 -9 84 -12 27 -4 53 -11 56 -16 4 -7 8 -6 10 1 2 6 14 8 26 5
14 -4 20 -11 16 -18 -4 -6 0 -6 9 2 10 8 33 11 69 7 86 -9 544 -5 544 5 0 1
14 3 30 5 46 6 105 14 155 22 25 4 59 7 75 7 17 1 33 5 36 10 4 4 27 9 52 10
25 0 43 4 42 7 -2 3 23 11 55 17 33 7 88 22 122 33 35 11 70 22 78 24 8 2 27
8 43 14 15 6 27 7 27 3 0 -4 4 -1 8 5 4 7 19 14 32 15 14 2 27 5 30 8 11 12
186 83 207 84 11 0 19 4 17 8 -6 10 127 69 139 61 5 -3 7 -2 4 4 -3 5 13 20
36 32 122 64 428 270 477 321 23 23 99 78 104 75 3 -3 4 -2 1 2 -7 9 46 63 57
57 4 -3 8 -1 8 4 0 13 177 192 190 192 6 0 9 4 6 8 -2 4 11 25 31 47 19 22 47
56 61 75 15 19 29 37 32 40 18 18 103 134 130 178 18 29 36 49 42 45 7 -3 8
-1 4 5 -4 6 6 31 21 54 15 24 35 57 44 73 9 17 28 50 43 75 35 61 140 279 151
315 14 45 18 54 25 50 5 -3 12 0 16 6 4 8 3 9 -4 5 -7 -4 -12 -5 -12 -3 0 12
51 152 60 162 5 6 8 14 5 17 -3 3 2 25 10 49 9 24 23 76 32 114 8 39 19 75 24
81 5 6 7 13 4 15 -2 3 0 24 6 47 5 23 12 59 15 80 3 20 7 48 10 62 2 14 7 43
10 65 3 22 8 47 10 55 5 13 12 126 17 270 1 25 7 48 12 52 7 5 7 8 0 8 -11 0
-13 109 -2 126 3 6 3 14 0 18 -12 12 -12 40 0 55 9 12 9 13 0 7 -10 -5 -13 6
-14 46 -2 93 -7 153 -12 168 -3 8 -8 38 -11 65 -3 28 -16 100 -27 160 -12 61
-22 124 -23 142 0 17 -4 29 -8 26 -5 -2 -8 2 -9 9 -3 50 -90 315 -149 450 -23
54 -38 103 -34 109 4 7 3 9 -3 6 -6 -4 -30 34 -57 88 -25 52 -62 120 -81 150
-19 30 -35 56 -35 59 0 3 -30 49 -67 103 -36 54 -66 103 -66 110 0 7 -3 11 -7
10 -13 -4 -91 103 -84 115 4 6 3 8 -3 5 -6 -4 -26 12 -44 35 -79 97 -224 246
-331 341 -32 27 -55 54 -51 60 4 6 1 7 -6 2 -8 -4 -23 3 -39 17 -42 39 -191
150 -252 188 -30 19 -57 37 -60 40 -3 3 -23 15 -45 27 -22 13 -39 28 -37 34 1
6 -2 8 -6 5 -12 -7 -85 28 -76 37 4 4 0 7 -9 7 -10 0 -52 18 -95 39 -108 56
-229 107 -354 151 -59 21 -104 41 -100 45 4 5 2 5 -4 2 -7 -4 -50 4 -95 17
-46 13 -100 27 -119 31 -19 4 -53 11 -75 16 -98 22 -120 26 -197 35 -39 4 -55
10 -51 18 4 6 1 6 -9 -1 -8 -7 -17 -11 -19 -9 -14 14 -568 34 -581 21z"/>
<path d="M6630 4181 c0 -6 4 -13 10 -16 6 -3 7 1 4 9 -7 18 -14 21 -14 7z"/>
<path d="M306 3602 c-3 -5 1 -9 9 -9 8 0 12 4 9 9 -3 4 -7 8 -9 8 -2 0 -6 -4
-9 -8z"/>
<path d="M586 2198 c3 -5 10 -6 15 -3 13 9 11 12 -6 12 -8 0 -12 -4 -9 -9z"/>
<path d="M833 1835 c0 -8 4 -12 9 -9 5 3 6 10 3 15 -9 13 -12 11 -12 -6z"/>
<path d="M5670 1141 c0 -6 4 -13 10 -16 6 -3 7 1 4 9 -7 18 -14 21 -14 7z"/>
<path d="M5116 778 c3 -5 10 -6 15 -3 13 9 11 12 -6 12 -8 0 -12 -4 -9 -9z"/>
<path d="M4666 562 c-3 -5 1 -9 9 -9 8 0 12 4 9 9 -3 4 -7 8 -9 8 -2 0 -6 -4
-9 -8z"/>
</g>
</svg>
