<svg width="443" height="443" viewBox="0 0 443 443" fill="none" xmlns="http://www.w3.org/2000/svg">
<g filter="url(#filter0_d_1_2)">
<circle cx="221.5" cy="217.5" r="198.5" fill="white"/>
</g>
<g filter="url(#filter1_d_1_2)">
<path d="M219.5 367.328C299.305 367.328 364 300.702 364 218.515C364 136.328 299.305 69.7015 219.5 69.7015C139.695 69.7015 75 136.328 75 218.515C75 300.702 139.695 367.328 219.5 367.328Z" stroke="#0F3449" stroke-width="6" stroke-miterlimit="10" shape-rendering="crispEdges"/>
</g>
<g filter="url(#filter2_d_1_2)">
<path d="M270.457 227.06H242.147L231.237 215.824L230.804 216.27V231.73L234.207 235.234V264.39H245.098V238.276H270.456L270.457 227.06Z" fill="#37B1B9"/>
</g>
<g filter="url(#filter3_d_1_2)">
<path d="M181.038 149.704L181.039 138.141H147.867V172.302H159.095V157.88L206.226 206.418L206.66 205.97V190.513L167.035 149.703L181.038 149.704Z" fill="#37B1B9"/>
</g>
<g filter="url(#filter4_d_1_2)">
<path d="M253.35 246.772V284.104H264.24V257.989H289.598L289.599 246.772H253.35Z" fill="#37B1B9"/>
</g>
<g filter="url(#filter5_d_1_2)">
<path d="M267.652 138.141L256.425 149.704H270.428L191.906 230.569H177.902L167.012 241.786H188.955V264.385L199.846 253.169V238.747L278.368 157.881V172.302L289.596 160.739V138.141H267.652Z" fill="#C51932"/>
</g>
<g filter="url(#filter6_d_1_2)">
<path d="M158.664 250.382L147.869 261.499H169.813V284.1L180.703 272.882V250.284H158.76L158.664 250.382Z" fill="#C51932"/>
</g>
<g filter="url(#filter7_d_1_2)">
<path d="M238.219 293.255C237.671 292.69 237.037 292.268 236.362 291.984C235.686 291.703 234.967 291.562 234.25 291.562C233.531 291.562 232.813 291.703 232.138 291.984C231.462 292.268 230.828 292.691 230.281 293.255L226.089 297.571C225.994 297.668 225.888 297.734 225.778 297.785C225.744 297.801 225.711 297.808 225.676 297.821C225.596 297.846 225.516 297.867 225.435 297.869C225.282 297.871 225.083 297.843 224.987 297.803C224.88 297.757 224.783 297.691 224.695 297.612C224.671 297.59 224.651 297.563 224.629 297.539C224.568 297.474 224.517 297.398 224.474 297.316C224.457 297.284 224.441 297.253 224.427 297.217C224.381 297.099 224.349 296.972 224.349 296.829V222.919L213.12 234.483V296.829C213.12 296.972 213.088 297.099 213.041 297.217C213.028 297.253 213.012 297.283 212.994 297.316C212.951 297.398 212.9 297.473 212.84 297.539C212.817 297.563 212.798 297.59 212.774 297.612C212.686 297.69 212.59 297.761 212.482 297.801C212.401 297.833 212.245 297.867 212.141 297.871C212.125 297.873 212.054 297.869 212.034 297.869C211.952 297.863 211.873 297.847 211.794 297.821C211.759 297.808 211.726 297.8 211.691 297.785C211.582 297.734 211.475 297.668 211.38 297.571L207.188 293.255C206.64 292.69 206.007 292.268 205.332 291.984C204.656 291.703 203.937 291.562 203.22 291.562C202.501 291.562 201.782 291.703 201.107 291.984C200.431 292.268 199.798 292.691 199.25 293.255C197.058 295.512 197.058 299.173 199.25 301.431L215.486 318.152C215.935 318.612 216.453 318.96 217.007 319.192C218.113 319.652 219.36 319.652 220.466 319.192C221.019 318.96 221.537 318.612 221.986 318.152L238.223 301.431C240.411 299.173 240.411 295.513 238.219 293.255Z" fill="#0F3449"/>
</g>
<g filter="url(#filter8_d_1_2)">
<path d="M217.822 153.616C218.325 154.133 219.14 154.133 219.642 153.616L233.473 139.372C234.494 138.32 235.068 136.894 235.068 135.406C235.068 130.409 229.203 127.908 225.772 131.44L219.642 137.753C219.14 138.271 218.325 138.271 217.822 137.753L211.693 131.44C208.261 127.907 202.396 130.409 202.396 135.406C202.396 136.894 202.969 138.319 203.992 139.372L217.822 153.616Z" fill="#0F3449"/>
</g>
<g filter="url(#filter9_d_1_2)">
<path d="M213.131 176.66C213.127 176.74 213.118 176.817 213.118 176.898V199.319L224.347 187.755V176.897C224.347 176.816 224.338 176.738 224.335 176.659L233.474 167.247C234.495 166.195 235.069 164.769 235.069 163.281C235.069 158.285 229.204 155.783 225.773 159.316L219.643 165.628C219.141 166.146 218.326 166.146 217.823 165.628L211.694 159.316C208.262 155.783 202.397 158.285 202.397 163.281C202.397 164.769 202.97 166.194 203.993 167.247L213.131 176.66Z" fill="#0F3449"/>
</g>
<g filter="url(#filter10_d_1_2)">
<path d="M68.0935 170.541C68.0935 170.541 61.1777 167.943 47.3462 162.746C47.3462 162.746 49.0971 157.803 52.599 147.917C52.599 147.917 59.5148 150.515 73.3463 155.711C73.3463 155.711 72.8882 157.004 71.972 159.591C71.972 159.591 66.2812 157.453 54.8997 153.177C54.8997 153.177 54.065 155.534 52.3955 160.247C52.3955 160.247 58.0863 162.385 69.4678 166.661C69.4678 166.661 69.0097 167.954 68.0935 170.541Z" fill="#0F3449"/>
<path d="M61.8526 127.78C62.5905 126.425 63.5578 125.281 64.7546 124.349C65.9514 123.417 67.2366 122.761 68.6103 122.382C69.9755 121.998 71.4136 121.898 72.9247 122.083C74.4405 122.26 75.8707 122.736 77.2153 123.513C79.0588 124.577 80.5012 125.991 81.5424 127.754C82.5836 129.516 83.126 131.419 83.1696 133.462C83.2047 135.5 82.7155 137.45 81.7021 139.311C80.9362 140.718 79.9498 141.907 78.7427 142.878C77.5404 143.841 76.2519 144.523 74.8774 144.924C73.4944 145.32 72.0427 145.435 70.5223 145.267C68.9981 145.086 67.5552 144.602 66.1937 143.815C64.8152 143.019 63.6577 142.001 62.721 140.761C61.7758 139.517 61.111 138.186 60.7266 136.769C60.3421 135.352 60.2375 133.86 60.4128 132.292C60.5928 130.717 61.0727 129.212 61.8526 127.78ZM65.1515 129.99C64.1848 131.765 63.9925 133.649 64.5745 135.643C65.1527 137.623 66.3424 139.133 68.1437 140.173C69.0486 140.695 69.9961 141.017 70.9863 141.138C71.9765 141.259 72.9221 141.196 73.8232 140.95C74.7158 140.699 75.5531 140.264 76.335 139.644C77.1169 139.025 77.7554 138.261 78.2504 137.351C79.2545 135.507 79.475 133.622 78.9119 131.696C78.3535 129.762 77.1441 128.257 75.2836 127.183C73.3977 126.094 71.4966 125.819 69.5801 126.358C67.6598 126.884 66.1836 128.094 65.1515 129.99Z" fill="#0F3449"/>
<path d="M73.036 110.242L75.5337 106.97L80.5202 111.008C81.5903 111.874 82.5013 112.297 83.2529 112.278C84.0029 112.245 84.7394 111.755 85.4623 110.808C86.3097 109.698 86.9691 108.649 87.4404 107.661L79.7558 101.44L82.2535 98.1677L99.4785 112.114L96.9808 115.386L90.3777 110.04C89.4963 111.725 88.7297 112.995 88.0779 113.848C87.5979 114.477 87.113 115.008 86.6233 115.44C86.1394 115.865 85.6013 116.208 85.0088 116.469C84.4222 116.723 83.8169 116.848 83.1928 116.845C82.5687 116.842 81.8849 116.684 81.1414 116.371C80.3979 116.058 79.6277 115.579 78.8308 114.934L73.036 110.242Z" fill="#0F3449"/>
<path d="M102.6 108.166C102.6 108.166 99.78 100.586 94.1399 85.4263C94.1399 85.4263 94.91 84.6704 96.45 83.1584C96.45 83.1584 103.681 86.4076 118.143 92.906C118.143 92.906 117.067 93.963 114.913 96.077C114.913 96.077 113.052 95.2302 109.329 93.5364C109.329 93.5364 107.455 95.3768 103.706 99.0576C103.706 99.0576 104.417 101.033 105.84 104.985C105.84 104.985 104.76 106.045 102.6 108.166ZM102.105 95.1299C102.105 95.1299 103.234 94.0216 105.492 91.8049C105.492 91.8049 103.405 90.7144 99.2308 88.5333C99.2308 88.5333 100.189 90.7322 102.105 95.1299Z" fill="#0F3449"/>
<path d="M123.7 88.8084C123.7 88.8084 120.169 83.8598 113.108 73.9626C113.108 73.9626 112.013 74.7906 109.825 76.4465C109.825 76.4465 109.065 75.3812 107.545 73.2508C107.545 73.2508 110.824 70.7699 117.38 65.808C117.38 65.808 118.14 66.8733 119.661 69.0037C119.661 69.0037 118.566 69.8317 116.378 71.4876C116.378 71.4876 119.909 76.4362 126.971 86.3334C126.971 86.3334 125.881 87.1584 123.7 88.8084Z" fill="#0F3449"/>
<path d="M135.25 80.4271C135.25 80.4271 131.673 73.9634 124.518 61.036C124.518 61.036 125.701 60.3414 128.067 58.9522C128.067 58.9522 129.611 61.7419 132.699 67.3212C132.699 67.3212 133.13 63.3723 133.992 55.4743C133.992 55.4743 135.415 54.6388 138.262 52.9678C138.262 52.9678 137.623 57.5485 136.344 66.7098C136.344 66.7098 140.561 68.5928 148.994 72.3589C148.994 72.3589 147.571 73.1944 144.725 74.8653C144.725 74.8653 141.175 73.1794 134.076 69.8076C134.076 69.8076 135.65 72.6528 138.8 78.3433C138.8 78.3433 137.617 79.0379 135.25 80.4271Z" fill="#0F3449"/>
<path d="M154.906 45.3064C156.342 44.74 157.819 44.4825 159.338 44.5337C160.857 44.585 162.268 44.9047 163.57 45.493C164.869 46.072 166.043 46.9158 167.091 48.0243C168.147 49.1292 168.947 50.4092 169.488 51.8645C170.231 53.8598 170.44 55.8658 170.118 57.8824C169.795 59.8991 168.998 61.7042 167.726 63.2978C166.451 64.8821 164.827 66.0633 162.856 66.8411C161.366 67.429 159.846 67.7091 158.293 67.6813C156.75 67.6499 155.32 67.3483 154.003 66.7764C152.683 66.1953 151.489 65.3542 150.423 64.2529C149.363 63.1388 148.559 61.845 148.01 60.3715C147.455 58.8796 147.212 57.3589 147.282 55.8096C147.348 54.251 147.685 52.8058 148.294 51.474C148.903 50.1422 149.775 48.9318 150.912 47.843C152.058 46.7505 153.389 45.905 154.906 45.3064ZM156.04 49.11C154.16 49.852 152.807 51.1729 151.983 53.0728C151.164 54.9599 151.117 56.8782 151.843 58.8277C152.207 59.807 152.733 60.6597 153.42 61.3859C154.106 62.112 154.876 62.6689 155.729 63.0567C156.578 63.4353 157.502 63.6374 158.502 63.663C159.501 63.6885 160.482 63.5113 161.445 63.1313C163.398 62.3606 164.772 61.0572 165.568 59.2211C166.374 57.3813 166.402 55.4547 165.652 53.4411C164.893 51.4001 163.602 49.9731 161.778 49.1602C159.96 48.3345 158.048 48.3178 156.04 49.11Z" fill="#0F3449"/>
<path d="M179.371 60.8528C179.371 60.8528 177.847 53.6239 174.799 39.1663C174.799 39.1663 176.286 38.8339 179.259 38.1691C180.908 37.8005 182.164 37.6047 183.028 37.5818C183.899 37.5472 184.709 37.6762 185.459 37.9687C186.309 38.309 187.025 38.8394 187.606 39.56C188.185 40.2711 188.577 41.1139 188.783 42.0886C188.998 43.1111 188.987 43.9792 188.748 44.693C188.517 45.395 188.015 46.0676 187.242 46.7106C188.029 46.8449 188.641 47.0032 189.079 47.1855C189.526 47.3657 189.946 47.632 190.34 47.9842C191.187 48.7354 191.76 49.8229 192.06 51.2467C192.302 52.3934 192.264 53.4925 191.947 54.544C191.63 55.5955 191.062 56.498 190.243 57.2515C189.113 58.2845 187.414 59.0545 185.146 59.5616L179.371 60.8528ZM182.578 56.1133L184.565 55.6691C185.966 55.3559 186.94 54.9129 187.488 54.3401C188.034 53.7578 188.206 52.9889 188.005 52.0333C187.804 51.0778 187.316 50.4463 186.543 50.1389C185.779 49.8294 184.701 49.8302 183.31 50.1412L181.409 50.5663L182.578 56.1133ZM180.578 46.6246L181.864 46.337C183.084 46.0642 183.93 45.6951 184.4 45.2297C184.869 44.7547 185.021 44.1254 184.856 43.3418C184.545 41.8703 183.356 41.3657 181.288 41.828L179.644 42.1956L180.578 46.6246Z" fill="#0F3449"/>
<path d="M197.27 57.0068C197.27 57.0068 199.814 49.4042 204.9 34.1989C204.9 34.1989 205.976 34.117 208.128 33.9532C208.128 33.9532 211.749 41.0865 218.99 55.3533C218.99 55.3533 217.485 55.4678 214.477 55.6969C214.477 55.6969 213.551 53.8526 211.7 50.1642C211.7 50.1642 209.081 50.3636 203.842 50.7624C203.842 50.7624 203.161 52.729 201.798 56.6621C201.798 56.6621 200.289 56.777 197.27 57.0068ZM205.051 46.7333C205.051 46.7333 206.628 46.6132 209.783 46.373C209.783 46.373 208.834 44.1976 206.936 39.8468C206.936 39.8468 206.307 42.1423 205.051 46.7333Z" fill="#0F3449"/>
<path d="M257.963 60.4276C257.963 60.4276 250.548 59.0955 235.717 56.4313C235.717 56.4313 236.95 49.1473 239.418 34.5794C239.418 34.5794 240.768 34.822 243.469 35.3072C243.469 35.3072 242.454 41.3009 240.423 53.2884C240.423 53.2884 242.106 53.5906 245.47 54.1949C245.47 54.1949 246.485 48.2011 248.515 36.2137C248.515 36.2137 249.866 36.4563 252.567 36.9414C252.567 36.9414 251.551 42.9352 249.521 54.9227C249.521 54.9227 251.203 55.2248 254.567 55.8291C254.567 55.8291 255.582 49.8354 257.613 37.8479C257.613 37.8479 258.963 38.0905 261.664 38.5757C261.664 38.5757 260.43 45.8597 257.963 60.4276Z" fill="#0F3449"/>
<path d="M264.144 62.646C264.144 62.646 266.461 55.6311 271.095 41.6012C271.095 41.6012 272.39 42.0549 274.98 42.9621C274.98 42.9621 273.98 45.9897 271.98 52.0449C271.98 52.0449 275.141 49.7744 281.464 45.2335C281.464 45.2335 283.021 45.7792 286.137 46.8705C286.137 46.8705 282.377 49.3968 274.857 54.4494C274.857 54.4494 276.3 58.938 279.185 67.9152C279.185 67.9152 277.628 67.3696 274.513 66.2783C274.513 66.2783 273.371 62.4333 271.089 54.7433C271.089 54.7433 270.069 57.8312 268.029 64.0069C268.029 64.0069 266.734 63.5533 264.144 62.646Z" fill="#0F3449"/>
<path d="M302.617 54.641C303.977 55.3701 305.14 56.3371 306.106 57.542C307.072 58.7469 307.771 60.0468 308.204 61.4418C308.641 62.8281 308.802 64.2939 308.688 65.8391C308.583 67.3889 308.18 68.8567 307.48 70.2424C306.519 72.1423 305.199 73.6389 303.519 74.7323C301.84 75.8257 300.001 76.4126 298.002 76.4929C296.008 76.5646 294.077 76.0997 292.209 75.0983C290.797 74.3414 289.589 73.3557 288.584 72.1411C287.588 70.9311 286.863 69.6283 286.409 68.2328C285.959 66.8285 285.782 65.3492 285.879 63.7948C285.989 62.2362 286.398 60.7554 287.108 59.3523C287.826 57.9317 288.771 56.7326 289.944 55.755C291.121 54.7687 292.394 54.067 293.765 53.6498C295.135 53.2326 296.592 53.0996 298.134 53.251C299.686 53.407 301.18 53.8703 302.617 54.641ZM300.6 58.046C298.819 57.0908 296.965 56.9276 295.039 57.5565C293.126 58.1813 291.7 59.4218 290.762 61.2782C290.29 62.2107 290.017 63.1832 289.943 64.1957C289.869 65.2083 289.972 66.1721 290.253 67.0873C290.539 67.9937 291.002 68.8404 291.644 69.6274C292.285 70.4144 293.062 71.0525 293.974 71.5417C295.825 72.5339 297.68 72.7258 299.541 72.1174C301.411 71.5136 302.83 70.253 303.8 68.3357C304.782 66.3922 304.967 64.4474 304.354 62.5012C303.753 60.551 302.502 59.0659 300.6 58.046Z" fill="#0F3449"/>
<path d="M324.221 76.0599C324.221 76.0599 319.272 79.1916 309.373 85.4552C309.373 85.4552 308.203 84.5498 305.863 82.739C305.863 82.739 312.662 78.6623 326.259 70.5088C326.259 70.5088 327.112 71.1692 328.819 72.4899C328.819 72.4899 326.91 80.3496 323.09 96.0689C323.09 96.0689 321.92 95.1635 319.58 93.3527C319.58 93.3527 321.127 87.5884 324.221 76.0599Z" fill="#0F3449"/>
<path d="M324.808 98.0141C324.808 98.0141 332.134 95.0056 346.788 88.9886C346.788 88.9886 347.531 89.7711 349.017 91.336C349.017 91.336 345.947 98.827 339.807 113.809C339.807 113.809 338.768 112.715 336.69 110.527C336.69 110.527 337.491 108.598 339.092 104.741C339.092 104.741 337.283 102.837 333.665 99.0268C333.665 99.0268 331.755 99.7869 327.935 101.307C327.935 101.307 326.892 100.209 324.808 98.0141ZM337.46 97.3244C337.46 97.3244 338.549 98.4715 340.728 100.766C340.728 100.766 341.762 98.6018 343.831 94.2737C343.831 94.2737 341.707 95.2906 337.46 97.3244Z" fill="#0F3449"/>
<path d="M377.634 134.325C378.861 134.671 379.785 135.409 380.406 136.538C381.028 137.667 381.168 138.863 380.826 140.125C380.493 141.382 379.778 142.331 378.681 142.971C377.585 143.611 376.423 143.758 375.196 143.411C373.969 143.065 373.045 142.327 372.424 141.198C371.802 140.068 371.658 138.875 371.991 137.618C372.338 136.364 373.063 135.415 374.168 134.77C375.265 134.13 376.42 133.982 377.634 134.325ZM378.26 139.351C378.41 138.834 378.358 138.344 378.104 137.882C377.85 137.42 377.466 137.118 376.954 136.977C376.446 136.843 375.96 136.912 375.496 137.183C375.032 137.454 374.725 137.848 374.575 138.365C374.43 138.89 374.484 139.384 374.739 139.846C374.993 140.308 375.374 140.606 375.882 140.739C376.394 140.881 376.883 140.816 377.346 140.545C377.81 140.275 378.115 139.876 378.26 139.351ZM366.656 139.223L369.275 137.694C369.275 137.694 370.761 140.393 373.732 145.792C373.732 145.792 372.859 146.302 371.113 147.321C371.113 147.321 369.628 144.621 366.656 139.223ZM349.828 127.749C349.828 127.749 356.208 124.025 368.969 116.576C368.969 116.576 369.722 117.945 371.229 120.683C371.229 120.683 368.129 125.539 361.93 135.25C361.93 135.25 366.298 132.7 375.036 127.6C375.036 127.6 375.695 128.798 377.014 131.193C377.014 131.193 370.633 134.918 357.873 142.366C357.873 142.366 357.122 141.001 355.62 138.272C355.62 138.272 358.719 133.416 364.919 123.705C364.919 123.705 360.55 126.255 351.813 131.355C351.813 131.355 351.151 130.153 349.828 127.749Z" fill="#0F3449"/>
<path d="M370.388 153.821C370.388 153.821 376.389 155.193 388.393 157.936C388.393 157.936 388.768 158.99 389.518 161.097C389.518 161.097 384.757 162.893 375.237 166.487C375.237 166.487 375.499 167.223 376.023 168.695C376.023 168.695 374.908 169.116 372.679 169.957C372.679 169.957 372.417 169.221 371.893 167.749C371.893 167.749 370.856 168.14 368.782 168.923C368.782 168.923 368.337 167.672 367.446 165.169C367.446 165.169 368.483 164.778 370.557 163.995C370.557 163.995 369.487 160.987 367.345 154.97C367.345 154.97 368.36 154.587 370.388 153.821ZM373.901 162.733C373.901 162.733 376.569 161.726 381.905 159.712C381.905 159.712 378.62 158.985 372.05 157.53C372.05 157.53 372.667 159.264 373.901 162.733Z" fill="#0F3449"/>
<path d="M377.582 201.013C377.582 201.013 381.386 203.358 388.993 208.05C388.993 208.05 392.567 205.312 399.714 199.838C399.714 199.838 399.796 201.467 399.959 204.724C399.959 204.724 397.47 206.578 392.493 210.284C392.493 210.284 395.156 211.918 400.482 215.185C400.482 215.185 400.562 216.775 400.721 219.954C400.721 219.954 396.892 217.591 389.234 212.863C389.234 212.863 385.686 215.618 378.589 221.129C378.589 221.129 378.51 219.539 378.351 216.36C378.351 216.36 380.807 214.454 385.72 210.644C385.72 210.644 383.089 209.062 377.827 205.899C377.827 205.899 377.745 204.27 377.582 201.013Z" fill="#0F3449"/>
<path d="M378.442 224.496C378.442 224.496 385.786 225.306 400.472 226.926C400.472 226.926 400.277 228.796 399.888 232.536C399.888 232.536 394.12 233.904 382.584 236.639C382.584 236.639 387.942 239.21 398.659 244.352C398.659 244.352 398.464 246.222 398.075 249.961C398.075 249.961 390.732 249.151 376.046 247.531C376.046 247.531 376.187 246.171 376.47 243.451C376.47 243.451 381.979 244.059 392.996 245.274C392.996 245.274 387.687 242.748 377.069 237.696C377.069 237.696 377.185 236.579 377.418 234.345C377.418 234.345 383.126 233.034 394.542 230.413C394.542 230.413 389.034 229.805 378.016 228.59C378.016 228.59 378.158 227.225 378.442 224.496Z" fill="#0F3449"/>
<path d="M374.419 254.035C374.419 254.035 381.547 255.979 395.802 259.867C395.802 259.867 394.813 263.711 392.836 271.401C392.836 271.401 391.573 271.056 389.048 270.368C389.048 270.368 389.695 267.852 390.989 262.82C390.989 262.82 389.312 262.363 385.958 261.448C385.958 261.448 385.338 263.86 384.097 268.683C384.097 268.683 382.835 268.339 380.31 267.65C380.31 267.65 380.93 265.239 382.17 260.415C382.17 260.415 380.508 259.962 377.182 259.055C377.182 259.055 376.535 261.57 375.241 266.602C375.241 266.602 373.978 266.258 371.453 265.569C371.453 265.569 372.442 261.724 374.419 254.035Z" fill="#0F3449"/>
<path d="M381.028 287.82C381.028 287.82 376.778 283.647 368.279 275.302C368.279 275.302 368.835 273.931 369.948 271.189C369.948 271.189 375.572 276.973 386.82 288.542C386.82 288.542 386.414 289.542 385.602 291.542C385.602 291.542 377.654 291.486 361.758 291.373C361.758 291.373 362.314 290.002 363.427 287.26C363.427 287.26 369.294 287.447 381.028 287.82Z" fill="#0F3449"/>
<path d="M378.289 307.164L376.233 310.73L368.847 306.214L368.116 307.483C367.272 308.946 366.564 310.047 365.993 310.785C365.421 311.522 364.825 312.096 364.205 312.507C363.219 313.162 362.122 313.481 360.915 313.464C359.708 313.447 358.55 313.1 357.442 312.422C356.392 311.78 355.592 310.97 355.04 309.992C354.488 309.014 354.218 307.939 354.229 306.767C354.245 305.918 354.426 305.028 354.772 304.095C355.118 303.163 355.715 301.96 356.564 300.488L359.381 295.602L378.289 307.164ZM365.486 304.158L360.674 301.216L359.847 302.65C359.189 303.792 358.727 304.74 358.462 305.493C358.243 306.206 358.233 306.858 358.433 307.449C358.628 308.049 359.013 308.525 359.588 308.877C360.096 309.187 360.64 309.28 361.22 309.154C361.795 309.036 362.328 308.716 362.821 308.193C363.373 307.627 364.022 306.696 364.769 305.402L365.486 304.158Z" fill="#0F3449"/>
<path d="M348.807 313.245C348.807 313.245 354.518 317.932 365.941 327.304C365.941 327.304 365.101 328.389 363.422 330.559C363.422 330.559 361.12 328.67 356.514 324.891C356.514 324.891 354.898 326.981 351.665 331.16C351.665 331.16 353.968 333.049 358.573 336.827C358.573 336.827 357.737 337.909 356.064 340.072C356.064 340.072 350.352 335.385 338.93 326.013C338.93 326.013 339.766 324.932 341.439 322.769C341.439 322.769 343.836 324.736 348.63 328.669C348.63 328.669 350.247 326.58 353.479 322.401C353.479 322.401 351.082 320.435 346.288 316.501C346.288 316.501 347.128 315.416 348.807 313.245Z" fill="#0F3449"/>
<path d="M339.033 357.479C339.033 357.479 338.028 358.441 336.017 360.366C336.017 360.366 331.067 354.882 321.166 343.915C321.166 343.915 322.15 342.972 324.118 341.088C324.118 341.088 327.551 344.89 334.415 352.494C334.415 352.494 333.3 346.474 331.07 334.433C331.07 334.433 332.075 333.47 334.086 331.546C334.086 331.546 339.036 337.029 348.937 347.997C348.937 347.997 347.952 348.939 345.984 350.823C345.984 350.823 342.556 347.025 335.698 339.428C335.698 339.428 336.809 345.445 339.033 357.479Z" fill="#0F3449"/>
<path d="M319.047 373.042C319.047 373.042 317.927 373.826 315.687 375.394C315.687 375.394 312.339 370.32 305.643 360.171C305.643 360.171 304.743 360.801 302.943 362.061C302.943 362.061 301.424 359.758 298.385 355.152C298.385 355.152 299.169 354.604 300.737 353.506C300.737 353.506 301.768 354.555 303.829 356.651C303.829 356.651 307.926 353.784 316.119 348.051C316.119 348.051 320.188 354.217 328.325 366.55C328.325 366.55 327.2 367.337 324.952 368.91C324.952 368.91 321.604 363.836 314.909 353.688C314.909 353.688 312.94 355.065 309.004 357.82C309.004 357.82 312.352 362.894 319.047 373.042Z" fill="#0F3449"/>
<path d="M305.346 381.503L301.674 383.362L297.945 375.549L296.638 376.211C295.131 376.974 293.936 377.507 293.054 377.812C292.171 378.116 291.358 378.271 290.614 378.275C289.428 378.285 288.334 377.952 287.33 377.278C286.327 376.604 285.546 375.681 284.986 374.509C284.457 373.399 284.227 372.284 284.299 371.164C284.37 370.045 284.731 368.998 285.38 368.023C285.857 367.323 286.495 366.677 287.295 366.086C288.095 365.495 289.253 364.816 290.769 364.048L295.8 361.501L305.346 381.503ZM296.248 371.993L293.819 366.903L292.342 367.651C291.166 368.246 290.261 368.786 289.627 369.272C289.053 369.748 288.689 370.288 288.534 370.892C288.37 371.5 288.433 372.108 288.723 372.716C288.98 373.254 289.386 373.628 289.941 373.84C290.487 374.055 291.11 374.079 291.809 373.912C292.581 373.74 293.634 373.316 294.967 372.641L296.248 371.993Z" fill="#0F3449"/>
<path d="M277.436 370.268C277.436 370.268 279.761 377.281 284.411 391.305C284.411 391.305 283.116 391.761 280.528 392.671C280.528 392.671 279.524 389.644 277.517 383.591C277.517 383.591 276.36 387.378 274.046 394.95C274.046 394.95 272.489 395.497 269.376 396.592C269.376 396.592 270.855 392.227 273.814 383.497C273.814 383.497 270.009 380.849 262.401 375.555C262.401 375.555 263.958 375.008 267.072 373.913C267.072 373.913 270.256 376.24 276.623 380.894C276.623 380.894 275.6 377.807 273.553 371.634C273.553 371.634 274.847 371.179 277.436 370.268Z" fill="#0F3449"/>
<path d="M251.656 400.865C250.139 401.145 248.637 401.113 247.15 400.771C245.664 400.429 244.333 399.845 243.159 399.019C241.987 398.202 240.987 397.15 240.159 395.863C239.321 394.577 238.769 393.169 238.504 391.639C238.14 389.542 238.302 387.536 238.991 385.622C239.679 383.708 240.796 382.093 242.342 380.775C243.889 379.468 245.705 378.622 247.789 378.239C249.364 377.949 250.913 377.966 252.436 378.292C253.95 378.619 255.303 379.189 256.495 380.002C257.688 380.825 258.708 381.878 259.556 383.162C260.395 384.457 260.949 385.88 261.218 387.429C261.49 388.997 261.449 390.534 261.096 392.038C260.744 393.553 260.146 394.904 259.302 396.092C258.458 397.28 257.376 398.298 256.056 399.147C254.727 399.997 253.26 400.57 251.656 400.865ZM251.239 396.921C253.228 396.555 254.802 395.52 255.964 393.817C257.117 392.125 257.516 390.255 257.16 388.205C256.981 387.176 256.621 386.239 256.078 385.396C255.535 384.553 254.88 383.859 254.111 383.315C253.345 382.781 252.472 382.406 251.492 382.189C250.513 381.972 249.515 381.957 248.497 382.145C246.432 382.525 244.838 383.538 243.717 385.184C242.585 386.832 242.203 388.714 242.571 390.831C242.943 392.977 243.952 394.623 245.598 395.77C247.237 396.928 249.117 397.311 251.239 396.921Z" fill="#0F3449"/>
<path d="M230.331 380.771C230.331 380.771 230.705 388.15 231.452 402.906C231.452 402.906 230.082 402.98 227.342 403.127C227.342 403.127 226.968 395.749 226.221 380.992C226.221 380.992 227.591 380.919 230.331 380.771ZM234.639 404.73C234.639 404.73 234.706 406.056 234.841 408.709C234.841 408.709 233.51 408.781 230.847 408.924C230.847 408.924 230.78 407.597 230.646 404.944C230.646 404.944 231.977 404.873 234.639 404.73ZM228.335 405.069C228.335 405.069 228.402 406.395 228.536 409.048C228.536 409.048 227.21 409.119 224.558 409.262C224.558 409.262 224.491 407.935 224.356 405.282C224.356 405.282 225.682 405.211 228.335 405.069Z" fill="#0F3449"/>
<path d="M206.53 380.744C206.53 380.744 205.423 388.048 203.21 402.657C203.21 402.657 201.354 402.359 197.641 401.762C197.641 401.762 196.513 395.913 194.256 384.216C194.256 384.216 191.475 389.436 185.912 399.877C185.912 399.877 184.056 399.579 180.344 398.982C180.344 398.982 181.451 391.678 183.665 377.069C183.665 377.069 185.015 377.286 187.714 377.72C187.714 377.72 186.884 383.199 185.223 394.158C185.223 394.158 187.958 388.985 193.427 378.638C193.427 378.638 194.536 378.816 196.754 379.173C196.754 379.173 197.827 384.958 199.975 396.529C199.975 396.529 200.806 391.05 202.466 380.091C202.466 380.091 203.821 380.309 206.53 380.744Z" fill="#0F3449"/>
<path d="M177.866 374.924C177.866 374.924 175.861 382.034 171.851 396.255C171.851 396.255 170.536 395.862 167.907 395.076C167.907 395.076 169.912 387.965 173.922 373.744C173.922 373.744 175.237 374.138 177.866 374.924Z" fill="#0F3449"/>
<path d="M150.01 370.85C150.01 370.85 148.533 370.204 145.58 368.914C147.147 367.393 149.001 366.456 151.142 366.102C153.275 365.745 155.383 366.022 157.468 366.933C158.444 367.359 159.345 367.902 160.171 368.562C160.989 369.217 161.692 369.945 162.281 370.746C162.869 371.547 163.361 372.417 163.755 373.356C164.137 374.301 164.396 375.261 164.532 376.237C164.665 377.222 164.672 378.232 164.552 379.266C164.419 380.306 164.152 381.313 163.75 382.288C163.162 383.715 162.323 384.957 161.232 386.015C160.142 387.072 158.938 387.867 157.62 388.4C156.303 388.932 154.884 389.197 153.365 389.193C151.846 389.19 150.379 388.88 148.965 388.262C147.686 387.703 146.545 386.948 145.542 385.999C144.527 385.054 143.71 383.973 143.093 382.755C142.679 381.913 142.387 381.136 142.217 380.422C142.046 379.708 141.945 378.838 141.914 377.812L146.129 379.654C146.446 380.858 146.941 381.847 147.615 382.621C148.285 383.404 149.21 384.053 150.392 384.57C152.512 385.496 154.508 385.484 156.378 384.533C157.147 384.155 157.854 383.617 158.501 382.919C159.138 382.217 159.63 381.447 159.976 380.607C160.493 379.352 160.669 378.054 160.503 376.714C160.337 375.373 159.861 374.158 159.074 373.069C158.284 371.988 157.272 371.178 156.037 370.639C155.061 370.212 154.113 370.016 153.19 370.05C152.259 370.08 151.199 370.347 150.01 370.85Z" fill="#0F3449"/>
<path d="M132.118 379.248L128.632 377.06L133.041 369.609L131.8 368.831C130.369 367.932 129.293 367.182 128.572 366.58C127.851 365.977 127.29 365.354 126.888 364.71C126.247 363.685 125.934 362.555 125.95 361.321C125.967 360.086 126.305 358.91 126.967 357.792C127.594 356.733 128.385 355.933 129.34 355.392C130.296 354.85 131.346 354.599 132.492 354.638C133.321 354.674 134.191 354.881 135.103 355.257C136.015 355.633 137.19 356.273 138.629 357.177L143.406 360.175L132.118 379.248ZM135.048 366.218L137.92 361.365L136.518 360.485C135.402 359.784 134.475 359.289 133.739 359C133.042 358.758 132.405 358.733 131.827 358.923C131.241 359.109 130.776 359.491 130.433 360.071C130.13 360.584 130.04 361.138 130.163 361.735C130.279 362.326 130.592 362.88 131.103 363.396C131.657 363.974 132.567 364.661 133.832 365.455L135.048 366.218Z" fill="#0F3449"/>
<path d="M126.502 348.785C126.502 348.785 121.968 354.617 112.899 366.281C112.899 366.281 111.84 365.409 109.723 363.663C109.723 363.663 111.68 361.146 115.594 356.111C115.594 356.111 111.87 357.171 104.422 359.292C104.422 359.292 103.149 358.242 100.602 356.142C100.602 356.142 104.973 355.045 113.713 352.852C113.713 352.852 113.878 348.117 114.206 338.645C114.206 338.645 115.479 339.695 118.026 341.795C118.026 341.795 117.797 345.819 117.338 353.868C117.338 353.868 119.334 351.3 123.327 346.166C123.327 346.166 124.385 347.039 126.502 348.785Z" fill="#0F3449"/>
<path d="M87.6528 343.056C86.6252 341.905 85.8629 340.596 85.366 339.131C84.869 337.666 84.6546 336.202 84.7228 334.739C84.7838 333.283 85.1301 331.846 85.7615 330.428C86.3865 329.003 87.2627 327.757 88.3901 326.689C89.936 325.225 91.682 324.264 93.6283 323.806C95.5746 323.348 97.4985 323.421 99.4002 324.027C101.295 324.639 102.948 325.736 104.359 327.317C105.426 328.511 106.224 329.853 106.754 331.34C107.278 332.821 107.515 334.296 107.467 335.767C107.412 337.244 107.075 338.699 106.457 340.131C105.825 341.563 104.938 342.82 103.796 343.901C102.641 344.995 101.347 345.804 99.9156 346.325C98.4771 346.854 97.0444 347.082 95.6175 347.008C94.1906 346.934 92.7796 346.563 91.3845 345.894C89.9828 345.218 88.7389 344.272 87.6528 343.056ZM90.7002 340.533C92.0465 342.041 93.7296 342.827 95.7493 342.89C97.7554 342.953 99.5137 342.27 101.024 340.84C101.783 340.121 102.369 339.297 102.782 338.368C103.196 337.439 103.426 336.495 103.473 335.536C103.513 334.584 103.366 333.628 103.032 332.667C102.697 331.707 102.186 330.84 101.496 330.068C100.098 328.502 98.4227 327.688 96.471 327.627C94.5127 327.559 92.7536 328.264 91.1936 329.741C89.6123 331.238 88.7788 333.009 88.6931 335.053C88.5938 337.096 89.2629 338.923 90.7002 340.533Z" fill="#0F3449"/>
<path d="M92.9527 313.363C92.9527 313.363 86.9948 317.731 75.0792 326.468C75.0792 326.468 74.299 325.339 72.7385 323.082C72.7385 323.082 78.6963 318.714 90.6119 309.977C90.6119 309.977 91.3922 311.106 92.9527 313.363ZM75.2303 330.188C75.2303 330.188 74.1592 330.974 72.0171 332.544C72.0171 332.544 71.259 331.448 69.743 329.255C69.743 329.255 70.814 328.47 72.9562 326.899C72.9562 326.899 73.7142 327.996 75.2303 330.188ZM71.64 324.995C71.64 324.995 70.5689 325.781 68.4268 327.351C68.4268 327.351 67.6716 326.259 66.161 324.074C66.161 324.074 67.2321 323.288 69.3742 321.718C69.3742 321.718 70.1295 322.81 71.64 324.995Z" fill="#0F3449"/>
<path d="M80.5038 292.473C80.5038 292.473 73.8535 295.69 60.5529 302.125C60.5529 302.125 59.793 300.459 58.2732 297.127C57.645 295.75 57.2273 294.635 57.0201 293.78C56.8088 292.917 56.7544 292.092 56.8568 291.305C57.0114 290.233 57.4313 289.259 58.1165 288.386C58.8018 287.512 59.7026 286.805 60.819 286.265C62.0058 285.691 63.1982 285.423 64.3962 285.461C65.5902 285.491 66.6275 285.824 67.5082 286.461C68.0583 286.868 68.5672 287.418 69.0348 288.114C69.5023 288.81 70.0462 289.837 70.6663 291.197L71.2134 292.396L78.7955 288.728L80.5038 292.473ZM67.6663 294.112L67.1678 293.019C66.649 291.882 66.172 291.072 65.7368 290.588C65.3442 290.127 64.8724 289.846 64.3214 289.744C63.7664 289.633 63.2032 289.715 62.6318 289.992C61.9988 290.298 61.5291 290.715 61.2226 291.243C60.9162 291.771 60.8118 292.342 60.9096 292.956C61.0297 293.549 61.3289 294.369 61.8071 295.418L62.3786 296.67L67.6663 294.112Z" fill="#0F3449"/>
<path d="M73 275.383C73 275.383 65.075 274.668 49.225 273.239C49.225 273.239 48.9154 272.205 48.2961 270.137C48.2961 270.137 54.4475 264.931 66.7502 254.517C66.7502 254.517 67.1831 255.962 68.049 258.853C68.049 258.853 66.4563 260.189 63.2711 262.86C63.2711 262.86 64.0248 265.377 65.5322 270.41C65.5322 270.41 67.5872 270.618 71.6971 271.033C71.6971 271.033 72.1314 272.483 73 275.383ZM61.362 270.167C61.362 270.167 60.9081 268.651 60.0003 265.62C60.0003 265.62 58.0912 267.057 54.273 269.929C54.273 269.929 56.636 270.009 61.362 270.167Z" fill="#0F3449"/>
<path d="M67.2488 226.756C67.2488 226.756 67.3773 227.71 67.6343 229.616C67.6343 229.616 66.2358 230.097 63.439 231.059C63.439 231.059 64.1922 236.648 65.6987 247.827C65.6987 247.827 67.1722 247.902 70.119 248.053C70.119 248.053 70.2468 249.002 70.5025 250.898C70.5025 250.898 67.7715 251.289 62.3094 252.07C62.3094 252.07 62.179 251.102 61.9181 249.166C61.9181 249.166 55.5617 247.515 42.8489 244.212C42.8489 244.212 42.7021 243.124 42.4087 240.946C42.4087 240.946 48.0888 237.579 59.449 230.845C59.449 230.845 59.3179 229.873 59.0557 227.928C59.0557 227.928 61.7868 227.537 67.2488 226.756ZM61.3488 244.942C61.3488 244.942 60.9053 241.651 60.0183 235.07C60.0183 235.07 56.2281 237.289 48.6477 241.726C48.6477 241.726 52.8814 242.798 61.3488 244.942Z" fill="#0F3449"/>
<path d="M41.2054 208.043C41.2054 208.043 41.237 206.652 41.3001 203.869C41.3001 203.869 48.6857 204.047 63.4568 204.402C63.4568 204.402 63.4259 205.764 63.3641 208.488C63.3641 208.488 58.2435 208.365 48.0023 208.118C48.0023 208.118 53.0501 211.449 63.1457 218.11C63.1457 218.11 63.1142 219.501 63.051 222.283C63.051 222.283 55.6655 222.106 40.8943 221.75C40.8943 221.75 40.9252 220.388 40.9871 217.664C40.9871 217.664 46.1028 217.787 56.3342 218.034C56.3342 218.034 51.2912 214.703 41.2054 208.043Z" fill="#0F3449"/>
</g>
<defs>
<filter id="filter0_d_1_2" x="0" y="0" width="443" height="443" filterUnits="userSpaceOnUse" color-interpolation-filters="sRGB">
<feFlood flood-opacity="0" result="BackgroundImageFix"/>
<feColorMatrix in="SourceAlpha" type="matrix" values="0 0 0 0 0 0 0 0 0 0 0 0 0 0 0 0 0 0 127 0" result="hardAlpha"/>
<feOffset dy="4"/>
<feGaussianBlur stdDeviation="11.5"/>
<feComposite in2="hardAlpha" operator="out"/>
<feColorMatrix type="matrix" values="0 0 0 0 0 0 0 0 0 0 0 0 0 0 0 0 0 0 0.25 0"/>
<feBlend mode="normal" in2="BackgroundImageFix" result="effect1_dropShadow_1_2"/>
<feBlend mode="normal" in="SourceGraphic" in2="effect1_dropShadow_1_2" result="shape"/>
</filter>
<filter id="filter1_d_1_2" x="66" y="63.7015" width="307" height="315.627" filterUnits="userSpaceOnUse" color-interpolation-filters="sRGB">
<feFlood flood-opacity="0" result="BackgroundImageFix"/>
<feColorMatrix in="SourceAlpha" type="matrix" values="0 0 0 0 0 0 0 0 0 0 0 0 0 0 0 0 0 0 127 0" result="hardAlpha"/>
<feOffset dy="3"/>
<feGaussianBlur stdDeviation="3"/>
<feComposite in2="hardAlpha" operator="out"/>
<feColorMatrix type="matrix" values="0 0 0 0 0 0 0 0 0 0 0 0 0 0 0 0 0 0 0.25 0"/>
<feBlend mode="normal" in2="BackgroundImageFix" result="effect1_dropShadow_1_2"/>
<feBlend mode="normal" in="SourceGraphic" in2="effect1_dropShadow_1_2" result="shape"/>
</filter>
<filter id="filter2_d_1_2" x="223.804" y="212.824" width="53.653" height="62.5657" filterUnits="userSpaceOnUse" color-interpolation-filters="sRGB">
<feFlood flood-opacity="0" result="BackgroundImageFix"/>
<feColorMatrix in="SourceAlpha" type="matrix" values="0 0 0 0 0 0 0 0 0 0 0 0 0 0 0 0 0 0 127 0" result="hardAlpha"/>
<feOffset dy="4"/>
<feGaussianBlur stdDeviation="3.5"/>
<feComposite in2="hardAlpha" operator="out"/>
<feColorMatrix type="matrix" values="0 0 0 0 0 0 0 0 0 0 0 0 0 0 0 0 0 0 0.25 0"/>
<feBlend mode="normal" in2="BackgroundImageFix" result="effect1_dropShadow_1_2"/>
<feBlend mode="normal" in="SourceGraphic" in2="effect1_dropShadow_1_2" result="shape"/>
</filter>
<filter id="filter3_d_1_2" x="140.867" y="135.141" width="72.793" height="82.277" filterUnits="userSpaceOnUse" color-interpolation-filters="sRGB">
<feFlood flood-opacity="0" result="BackgroundImageFix"/>
<feColorMatrix in="SourceAlpha" type="matrix" values="0 0 0 0 0 0 0 0 0 0 0 0 0 0 0 0 0 0 127 0" result="hardAlpha"/>
<feOffset dy="4"/>
<feGaussianBlur stdDeviation="3.5"/>
<feComposite in2="hardAlpha" operator="out"/>
<feColorMatrix type="matrix" values="0 0 0 0 0 0 0 0 0 0 0 0 0 0 0 0 0 0 0.25 0"/>
<feBlend mode="normal" in2="BackgroundImageFix" result="effect1_dropShadow_1_2"/>
<feBlend mode="normal" in="SourceGraphic" in2="effect1_dropShadow_1_2" result="shape"/>
</filter>
<filter id="filter4_d_1_2" x="246.35" y="243.772" width="50.249" height="51.3321" filterUnits="userSpaceOnUse" color-interpolation-filters="sRGB">
<feFlood flood-opacity="0" result="BackgroundImageFix"/>
<feColorMatrix in="SourceAlpha" type="matrix" values="0 0 0 0 0 0 0 0 0 0 0 0 0 0 0 0 0 0 127 0" result="hardAlpha"/>
<feOffset dy="4"/>
<feGaussianBlur stdDeviation="3.5"/>
<feComposite in2="hardAlpha" operator="out"/>
<feColorMatrix type="matrix" values="0 0 0 0 0 0 0 0 0 0 0 0 0 0 0 0 0 0 0.25 0"/>
<feBlend mode="normal" in2="BackgroundImageFix" result="effect1_dropShadow_1_2"/>
<feBlend mode="normal" in="SourceGraphic" in2="effect1_dropShadow_1_2" result="shape"/>
</filter>
<filter id="filter5_d_1_2" x="160.012" y="135.141" width="136.584" height="140.244" filterUnits="userSpaceOnUse" color-interpolation-filters="sRGB">
<feFlood flood-opacity="0" result="BackgroundImageFix"/>
<feColorMatrix in="SourceAlpha" type="matrix" values="0 0 0 0 0 0 0 0 0 0 0 0 0 0 0 0 0 0 127 0" result="hardAlpha"/>
<feOffset dy="4"/>
<feGaussianBlur stdDeviation="3.5"/>
<feComposite in2="hardAlpha" operator="out"/>
<feColorMatrix type="matrix" values="0 0 0 0 0 0 0 0 0 0 0 0 0 0 0 0 0 0 0.25 0"/>
<feBlend mode="normal" in2="BackgroundImageFix" result="effect1_dropShadow_1_2"/>
<feBlend mode="normal" in="SourceGraphic" in2="effect1_dropShadow_1_2" result="shape"/>
</filter>
<filter id="filter6_d_1_2" x="140.869" y="247.284" width="46.834" height="47.8162" filterUnits="userSpaceOnUse" color-interpolation-filters="sRGB">
<feFlood flood-opacity="0" result="BackgroundImageFix"/>
<feColorMatrix in="SourceAlpha" type="matrix" values="0 0 0 0 0 0 0 0 0 0 0 0 0 0 0 0 0 0 127 0" result="hardAlpha"/>
<feOffset dy="4"/>
<feGaussianBlur stdDeviation="3.5"/>
<feComposite in2="hardAlpha" operator="out"/>
<feColorMatrix type="matrix" values="0 0 0 0 0 0 0 0 0 0 0 0 0 0 0 0 0 0 0.25 0"/>
<feBlend mode="normal" in2="BackgroundImageFix" result="effect1_dropShadow_1_2"/>
<feBlend mode="normal" in="SourceGraphic" in2="effect1_dropShadow_1_2" result="shape"/>
</filter>
<filter id="filter7_d_1_2" x="190.606" y="219.919" width="56.2575" height="110.619" filterUnits="userSpaceOnUse" color-interpolation-filters="sRGB">
<feFlood flood-opacity="0" result="BackgroundImageFix"/>
<feColorMatrix in="SourceAlpha" type="matrix" values="0 0 0 0 0 0 0 0 0 0 0 0 0 0 0 0 0 0 127 0" result="hardAlpha"/>
<feOffset dy="4"/>
<feGaussianBlur stdDeviation="3.5"/>
<feComposite in2="hardAlpha" operator="out"/>
<feColorMatrix type="matrix" values="0 0 0 0 0 0 0 0 0 0 0 0 0 0 0 0 0 0 0.25 0"/>
<feBlend mode="normal" in2="BackgroundImageFix" result="effect1_dropShadow_1_2"/>
<feBlend mode="normal" in="SourceGraphic" in2="effect1_dropShadow_1_2" result="shape"/>
</filter>
<filter id="filter8_d_1_2" x="195.396" y="126.786" width="46.672" height="38.2176" filterUnits="userSpaceOnUse" color-interpolation-filters="sRGB">
<feFlood flood-opacity="0" result="BackgroundImageFix"/>
<feColorMatrix in="SourceAlpha" type="matrix" values="0 0 0 0 0 0 0 0 0 0 0 0 0 0 0 0 0 0 127 0" result="hardAlpha"/>
<feOffset dy="4"/>
<feGaussianBlur stdDeviation="3.5"/>
<feComposite in2="hardAlpha" operator="out"/>
<feColorMatrix type="matrix" values="0 0 0 0 0 0 0 0 0 0 0 0 0 0 0 0 0 0 0.25 0"/>
<feBlend mode="normal" in2="BackgroundImageFix" result="effect1_dropShadow_1_2"/>
<feBlend mode="normal" in="SourceGraphic" in2="effect1_dropShadow_1_2" result="shape"/>
</filter>
<filter id="filter9_d_1_2" x="195.397" y="154.662" width="46.672" height="55.6576" filterUnits="userSpaceOnUse" color-interpolation-filters="sRGB">
<feFlood flood-opacity="0" result="BackgroundImageFix"/>
<feColorMatrix in="SourceAlpha" type="matrix" values="0 0 0 0 0 0 0 0 0 0 0 0 0 0 0 0 0 0 127 0" result="hardAlpha"/>
<feOffset dy="4"/>
<feGaussianBlur stdDeviation="3.5"/>
<feComposite in2="hardAlpha" operator="out"/>
<feColorMatrix type="matrix" values="0 0 0 0 0 0 0 0 0 0 0 0 0 0 0 0 0 0 0.25 0"/>
<feBlend mode="normal" in2="BackgroundImageFix" result="effect1_dropShadow_1_2"/>
<feBlend mode="normal" in="SourceGraphic" in2="effect1_dropShadow_1_2" result="shape"/>
</filter>
<filter id="filter10_d_1_2" x="36.8943" y="30.247" width="367.827" height="384.015" filterUnits="userSpaceOnUse" color-interpolation-filters="sRGB">
<feFlood flood-opacity="0" result="BackgroundImageFix"/>
<feColorMatrix in="SourceAlpha" type="matrix" values="0 0 0 0 0 0 0 0 0 0 0 0 0 0 0 0 0 0 127 0" result="hardAlpha"/>
<feOffset dy="1"/>
<feGaussianBlur stdDeviation="2"/>
<feComposite in2="hardAlpha" operator="out"/>
<feColorMatrix type="matrix" values="0 0 0 0 0.0588235 0 0 0 0 0.203922 0 0 0 0 0.286275 0 0 0 0.28 0"/>
<feBlend mode="normal" in2="BackgroundImageFix" result="effect1_dropShadow_1_2"/>
<feBlend mode="normal" in="SourceGraphic" in2="effect1_dropShadow_1_2" result="shape"/>
</filter>
</defs>
</svg>
